<?xml version="1.0" encoding="utf-8"?>
<svg viewBox="147.285 90.946 88.613 90" xmlns="http://www.w3.org/2000/svg">
  <g transform="matrix(1, 0, 0, 1, 14.807637, 1.095055)">
    <circle style="fill: rgb(244, 96, 54);" cx="168.552" cy="106.52" r="7.132"/>
    <circle style="fill: rgb(27, 153, 139);" cx="183.223" cy="126.803" r="7.132"/>
    <circle style="fill: rgb(244, 96, 54);" cx="183.765" cy="147.737" r="7.132"/>
    <circle style="fill: rgb(215, 38, 61);" cx="199.84" cy="125.964" r="7.132"/>
    <circle style="fill: rgb(27, 153, 139);" cx="198.463" cy="107.314" r="7.132"/>
    <circle style="fill: rgb(27, 153, 139);" cx="154.488" cy="147.338" r="7.132"/>
  </g>
  <g>
    <circle style="fill: rgb(215, 38, 61);" cx="168.552" cy="106.52" r="7.132"/>
  </g>
  <g transform="matrix(1, 0, 0, 1, 141.592239, 85.946075)">
    <path d="M47.261,63.676H36.13c-0.441,4.563-4.293,8.143-8.969,8.143c-2.08,0-3.994-0.718-5.52-1.905v7.754h56.027   V63.676H65.197c-0.441,4.563-4.293,8.143-8.967,8.143C51.554,71.819,47.7,68.239,47.261,63.676z" fill="none"/>
    <path d="M77.668,48.457c-1.527,1.189-3.441,1.905-5.522,1.905c-3.445,0-6.442-1.944-7.958-4.795   c-1.515,2.85-4.513,4.795-7.957,4.795c-4.574,0-8.355-3.427-8.93-7.847H21.641v13.181c1.526-1.189,3.44-1.903,5.52-1.903   c4.676,0,8.528,3.576,8.969,8.139h11.131c0.439-4.563,4.292-8.139,8.968-8.139c4.674,0,8.526,3.576,8.967,8.139h12.471V48.457z" fill="none"/>
    <circle cx="56.229" cy="62.805" r="5.521" fill="none"/>
    <path d="M41.695,27.493c3.045,0,5.521-2.478,5.521-5.522c0-3.041-2.477-5.52-5.521-5.52   c-3.045,0-5.521,2.48-5.521,5.52C36.174,25.016,38.651,27.493,41.695,27.493z" fill="none"/>
    <path d="M21.641,29.081V40.77h25.605c0.302-4.698,4.21-8.432,8.984-8.432c3.445,0,6.442,1.944,7.957,4.793   c1.516-2.848,4.513-4.793,7.958-4.793c2.081,0,3.995,0.715,5.522,1.905v-5.163c-1.527,1.189-3.441,1.907-5.522,1.907   c-4.574,0-8.354-3.429-8.929-7.849H50.623c-0.574,4.42-4.354,7.849-8.928,7.849c-2.983,0-5.625-1.465-7.266-3.705   c-1.641,2.24-4.284,3.705-7.268,3.705C25.081,30.986,23.167,30.269,21.641,29.081z" fill="none"/>
    <path d="M72.145,27.493c3.045,0,5.522-2.478,5.522-5.522c0-3.041-2.478-5.52-5.522-5.52   c-3.044,0-5.521,2.48-5.521,5.52C66.624,25.016,69.102,27.493,72.145,27.493z" fill="none"/>
    <path d="M85.973,77.686V10.899c0-1.328-1.079-2.406-2.406-2.406c-1.328,0-2.408,1.078-2.408,2.406v11.072v19.378   v36.319h4.484C85.753,77.668,85.862,77.682,85.973,77.686z" fill="none"/>
    <circle cx="27.161" cy="62.805" r="5.522" fill="none"/>
    <path d="M85.642,81.161H14.357c-2.852,0-5.173,2.321-5.173,5.173c0,2.852,2.321,5.175,5.173,5.175h71.284   c2.852,0,5.173-2.323,5.173-5.175C90.815,83.482,88.494,81.161,85.642,81.161z" fill="none"/>
    <path d="M18.15,77.668V62.827c0-0.008-0.002-0.016-0.002-0.022c0-0.01,0.002-0.018,0.002-0.028V21.999   c0-0.008-0.002-0.018-0.002-0.028c0-0.008,0.002-0.014,0.002-0.024V10.899c0-1.328-1.079-2.406-2.406-2.406   c-1.328,0-2.408,1.078-2.408,2.406v66.834c0.336-0.038,0.675-0.065,1.022-0.065H18.15z" fill="none"/>
    <circle cx="56.229" cy="41.349" r="5.521" fill="none"/>
    <circle cx="72.146" cy="41.349" r="5.522" fill="none"/>
    <path d="M27.161,27.493c3.044,0,5.519-2.474,5.522-5.518l-0.001-0.004c0,0,0.001,0,0.001-0.004   c-0.003-3.041-2.479-5.516-5.522-5.516c-3.045,0-5.522,2.48-5.522,5.52C21.639,25.016,24.117,27.493,27.161,27.493z" fill="none"/>
    <path d="M89.463,78.568V10.899C89.463,7.646,86.818,5,83.566,5c-3.254,0-5.899,2.646-5.899,5.899v3.966   c-1.527-1.189-3.441-1.905-5.522-1.905c-4.773,0-8.681,3.733-8.983,8.432H50.677c-0.301-4.7-4.209-8.432-8.982-8.432   c-2.983,0-5.625,1.463-7.266,3.703c-1.641-2.24-4.284-3.703-7.268-3.703c-2.08,0-3.994,0.716-5.52,1.903v-3.964   C21.641,7.646,18.996,5,15.744,5c-3.254,0-5.899,2.646-5.899,5.899V78.95c-2.486,1.526-4.152,4.262-4.152,7.384   C5.693,91.113,9.58,95,14.357,95h71.284c4.777,0,8.665-3.887,8.665-8.666C94.307,82.929,92.328,79.985,89.463,78.568z    M81.158,41.349V21.971V10.899c0-1.328,1.08-2.406,2.408-2.406c1.327,0,2.406,1.078,2.406,2.406v66.787   c-0.111-0.004-0.22-0.018-0.331-0.018h-4.484V41.349z M72.145,16.451c3.045,0,5.522,2.48,5.522,5.52   c0,3.045-2.478,5.522-5.522,5.522c-3.044,0-5.521-2.478-5.521-5.522C66.624,18.931,69.102,16.451,72.145,16.451z M41.695,16.451   c3.045,0,5.521,2.48,5.521,5.52c0,3.045-2.477,5.522-5.521,5.522c-3.045,0-5.521-2.478-5.521-5.522   C36.174,18.931,38.651,16.451,41.695,16.451z M34.429,27.281c1.641,2.24,4.283,3.705,7.266,3.705c4.574,0,8.354-3.429,8.928-7.849   h12.594c0.575,4.42,4.355,7.849,8.929,7.849c2.081,0,3.995-0.717,5.522-1.907v5.163c-1.527-1.189-3.441-1.905-5.522-1.905   c-3.445,0-6.442,1.944-7.958,4.793c-1.515-2.848-4.513-4.793-7.957-4.793c-4.774,0-8.682,3.734-8.984,8.432H21.641V29.081   c1.526,1.187,3.44,1.905,5.52,1.905C30.145,30.986,32.788,29.521,34.429,27.281z M56.23,71.819c4.674,0,8.526-3.58,8.967-8.143   h12.471v13.992H21.641v-7.754c1.526,1.187,3.44,1.905,5.52,1.905c4.676,0,8.528-3.58,8.969-8.143h11.131   C47.7,68.239,51.554,71.819,56.23,71.819z M50.707,62.806c0-3.045,2.478-5.522,5.522-5.522c3.044,0,5.519,2.478,5.519,5.522   c0,3.045-2.476,5.52-5.519,5.52C53.185,68.326,50.707,65.85,50.707,62.806z M65.197,61.931c-0.441-4.563-4.293-8.139-8.967-8.139   c-4.676,0-8.529,3.576-8.968,8.139H36.13c-0.441-4.563-4.293-8.139-8.969-8.139c-2.08,0-3.994,0.713-5.52,1.903V42.514H47.3   c0.575,4.42,4.356,7.847,8.93,7.847c3.445,0,6.442-1.944,7.957-4.795c1.516,2.85,4.513,4.795,7.958,4.795   c2.081,0,3.995-0.715,5.522-1.905v13.474H65.197z M50.707,41.349c0-3.043,2.478-5.52,5.522-5.52c3.044,0,5.519,2.478,5.519,5.52   c0,3.045-2.476,5.522-5.519,5.522C53.185,46.871,50.707,44.393,50.707,41.349z M72.145,46.871c-3.044,0-5.521-2.478-5.521-5.522   c0-3.043,2.478-5.52,5.521-5.52c3.045,0,5.522,2.478,5.522,5.52C77.668,44.393,75.19,46.871,72.145,46.871z M27.161,16.451   c3.044,0,5.519,2.476,5.522,5.516c0,0.004-0.001,0.004-0.001,0.004l0.001,0.004c-0.003,3.045-2.479,5.518-5.522,5.518   c-3.045,0-5.522-2.478-5.522-5.522C21.639,18.931,24.117,16.451,27.161,16.451z M27.161,57.283c3.045,0,5.522,2.478,5.522,5.522   c0,3.045-2.478,5.52-5.522,5.52s-5.522-2.476-5.522-5.52C21.639,59.761,24.117,57.283,27.161,57.283z M13.336,10.899   c0-1.328,1.08-2.406,2.408-2.406c1.327,0,2.406,1.078,2.406,2.406v11.048c0,0.01-0.002,0.016-0.002,0.024   c0,0.01,0.002,0.02,0.002,0.028v40.779c0,0.01-0.002,0.018-0.002,0.028c0,0.006,0.002,0.014,0.002,0.022v14.841h-3.793   c-0.347,0-0.686,0.028-1.022,0.065V10.899z M85.642,91.509H14.357c-2.852,0-5.173-2.323-5.173-5.175   c0-2.852,2.321-5.173,5.173-5.173h71.284c2.852,0,5.173,2.321,5.173,5.173C90.815,89.186,88.494,91.509,85.642,91.509z"/>
  </g>
</svg>